<svg width="694" height="480" viewBox="0 0 694 480" fill="none" xmlns="http://www.w3.org/2000/svg">
<g clip-path="url(#clip0_74_764)">
<path d="M787.091 -9H-94V489.13H787.091V-9Z" fill="#1A3129"/>
<path d="M277.291 120.975L258.657 140.716L238.179 133.059L236.703 136.934L259.764 145.559L280.289 123.789L277.291 120.975ZM426.684 161.287L400.486 177.66L402.7 181.166L428.898 164.792L426.684 161.287ZM277.291 120.975L258.657 140.716L238.179 133.059L236.703 136.934L259.764 145.559L280.289 123.789L277.291 120.975ZM426.684 161.287L400.486 177.66L402.7 181.166L428.898 164.792L426.684 161.287ZM277.291 120.975L258.657 140.716L238.179 133.059L236.703 136.934L259.764 145.559L280.289 123.789L277.291 120.975ZM426.684 161.287L400.486 177.66L402.7 181.166L428.898 164.792L426.684 161.287ZM277.291 120.975L258.657 140.716L238.179 133.059L236.703 136.934L259.764 145.559L280.289 123.789L277.291 120.975ZM426.684 161.287L400.486 177.66L402.7 181.166L428.898 164.792L426.684 161.287ZM277.291 120.975L258.657 140.716L238.179 133.059L236.703 136.934L259.764 145.559L280.289 123.789L277.291 120.975ZM426.684 161.287L400.486 177.66L402.7 181.166L428.898 164.792L426.684 161.287ZM277.291 120.975L258.657 140.716L238.179 133.059L236.703 136.934L259.764 145.559L280.289 123.789L277.291 120.975ZM426.684 161.287L400.486 177.66L402.7 181.166L428.898 164.792L426.684 161.287ZM277.291 120.975L258.657 140.716L238.179 133.059L236.703 136.934L259.764 145.559L280.289 123.789L277.291 120.975ZM426.684 161.287L400.486 177.66L402.7 181.166L428.898 164.792L426.684 161.287ZM277.291 120.975L258.657 140.716L238.179 133.059L236.703 136.934L259.764 145.559L280.289 123.789L277.291 120.975ZM426.684 161.287L400.486 177.66L402.7 181.166L428.898 164.792L426.684 161.287ZM547.711 110.367L570.265 79.4642L593.465 54.6961L595.587 56.8177V43.3037L565.561 75.3131L565.422 75.4515L545.543 102.71L530.784 88.1354L579.951 37.4921L576.953 34.5864L524.973 88.1815L543.099 106.077L510.121 134.674L497.668 114.518L498.498 92.6093L492.179 79.7871L485.676 66.5497L510.213 27.714L506.708 25.5001L480.925 66.3191L485.583 75.7744L415.661 33.0182C437.661 24.5315 458.417 16.3677 458.647 16.2755L457.125 12.4011C456.895 12.4934 432.957 21.9025 409.25 31.0349C375.303 44.0416 365.34 47.3164 362.481 48.1005L352.149 30.6659L414.923 11.5248L413.724 7.55821L349.981 27.0222L328.626 -9H324.844L324.06 -8.53877L346.476 29.2361C341.633 34.7247 323.922 54.7883 322.63 56.4949C321.293 58.2476 291.682 103.125 286.885 110.367C266.037 96.253 239.885 95.6073 238.409 95.5612H238.133L237.856 95.6534C236.472 96.0224 203.955 104.694 189.888 117.193C186.244 120.422 177.573 121.021 165.443 118.853L170.147 85.7831L196.576 -5.58689L189.611 -7.61631L163.09 83.9843L158.293 117.331C137.538 112.396 116.644 102.572 115.122 99.5739C113.462 95.7918 104.975 80.9863 97.457 68.164V76.4201C103.822 87.3974 110.003 98.1902 111.294 101.234C113.739 106.907 138.691 117.008 157.694 121.482L156.818 127.663C135.924 122.774 114.799 112.857 113.277 109.813C111.755 106.308 104.468 93.5779 97.457 81.5397V89.7958C103.13 99.62 108.296 108.706 109.449 111.428C111.94 117.147 137.215 127.34 156.218 131.768L153.22 152.754L165.166 186.424L163.736 220.232L150.222 240.25C142.196 252.195 132.926 265.848 123.747 279.454L115.168 267.047L97.5032 255.332V264.049L110.003 272.351L119.412 285.911C111.663 297.304 104.145 308.419 97.5032 318.059V330.928C102.9 323.087 110.003 312.663 119.412 298.78C121.118 296.243 122.871 293.706 124.577 291.169L173.699 329.221L199.989 372.023C194.777 377.65 189.934 382.955 185.644 387.659C183.615 389.919 181.632 392.087 179.787 394.07L145.287 354.266L145.102 354.081L117.843 335.54L106.912 350.161L110.233 352.652L118.812 341.213L131.68 349.976L120.519 358.509L123.055 361.83L135.324 352.467L142.335 357.264L143.58 358.74L123.793 370.594L125.915 374.145L146.348 361.922L176.973 397.253C173.745 400.712 171.208 403.295 169.963 404.31C160.507 411.735 132.741 427.509 132.465 427.648L137.077 435.766C138.23 435.12 165.765 419.484 175.728 411.643C178.634 409.383 184.169 403.249 192.563 394.024C196.207 390.011 200.45 385.353 205.062 380.372L230.107 421.145L238.317 427.602C217.239 440.562 202.387 449.879 201.741 450.756L205.062 453.246C204.97 453.338 204.924 453.431 204.878 453.477C206.308 452.278 221.528 442.822 241.822 430.323L263.131 447.112L269.589 461.963L273.417 460.303L270.05 452.554L309.208 483.365L313.728 477.645L263.915 438.487L256.905 422.344L256.305 421.467C275.539 409.66 297.17 396.515 315.573 385.307L320.416 404.033L377.794 486.685L383.79 482.534L362.619 452.001L399.933 430L422.441 418.423L429.59 459.427C426.084 460.857 417.229 464.408 408.373 468.19C384.574 478.429 384.297 479.952 384.02 481.427L388.125 482.165C388.033 482.581 387.848 482.811 387.848 482.811C389.786 480.643 410.541 471.557 430.328 463.624L434.756 489.084H438.999L434.341 462.425L454.081 458.827L470.455 436.965L544.713 456.613L545.774 452.6L472.438 433.183L494.808 376.82L502.741 378.25L595.679 422.298V417.685L504.033 374.237L496.376 372.854L507.261 345.503C535.811 363.906 579.306 388.904 595.725 398.221V393.424C570.865 379.219 498.959 337.708 486.045 325.208C499.236 332.404 510.075 337.846 518.054 340.89C544.944 357.771 579.951 377.881 595.725 386.921V382.124C581.381 373.914 554.445 358.371 530.83 343.934C534.751 344.303 538.809 344.765 542.73 345.226C560.626 347.301 577.507 349.285 587.331 342.458C589.268 341.121 592.174 338.815 595.679 335.909V323.686C589.729 328.806 584.702 332.911 581.981 334.802C575.062 339.599 559.15 337.754 543.791 335.955C538.902 335.402 533.828 334.802 528.939 334.433C522.943 333.972 507.353 326.269 489.458 316.491C488.351 315.569 487.521 314.738 486.875 314.047C478.296 304.361 445.318 267.831 420.042 241.541C423.594 240.065 426.361 239.05 427.976 238.727C433.372 237.713 463.813 244.862 488.259 250.581C539.409 262.619 564.269 267.831 571.465 263.911C573.817 262.665 579.167 259.391 586.316 255.009L595.633 263.818V258.099L590.006 252.749C591.805 251.642 593.696 250.489 595.633 249.244V238.22C591.067 241.08 586.778 243.709 582.995 246.061L530.969 196.709L568.282 155.06C577.322 163.085 586.685 171.388 595.633 179.367V173.786C587.1 166.222 578.66 158.658 571.096 151.97L595.633 124.573V118.346L567.959 149.202C560.81 142.884 554.676 137.441 550.386 133.613L548.91 132.321L506.754 173.786L491.349 159.165L547.481 110.505L547.711 110.367ZM488.95 82.6467L494.301 93.4856L493.563 114.149L467.272 138.871L483.877 157.505L468.333 170.973L467.734 171.48L460.169 178.029L459.893 178.26L459.8 178.721L456.434 197.355L455.234 198.047L412.524 128.355L405.929 110.92L395.459 103.679L383.374 83.2924L445.595 56.0798L488.95 82.6467ZM407.82 247.168C421.657 261.282 439.506 280.515 454.404 296.796C451.591 295.182 448.823 293.568 446.148 292.046C414.923 273.966 395.413 262.85 388.31 261.558C385.911 261.143 383.005 261.097 379.685 261.42C389.786 256.116 399.61 251.088 407.82 247.168ZM339.373 283.329L354.64 291.354L392.922 298.272L396.75 304.499L313.821 294.813C322.723 290.478 331.301 286.649 339.373 283.329ZM405.375 226.782C399.056 220.555 394.075 215.989 391.354 214.236C382.268 208.24 356.208 186.701 333.977 164.146L413.216 137.579L451.591 200.168L405.375 226.782ZM389.094 217.649C392.507 219.909 399.84 226.92 409.019 236.237C407.681 236.883 406.252 237.528 404.822 238.22C397.903 231.348 392.415 226.32 389.555 224.383C379.5 217.741 348.644 192.097 325.167 167.006L329.641 165.484C352.472 188.914 379.685 211.469 389.094 217.649ZM252.292 236.514L255.152 245.508L290.759 296.012C287.438 297.765 284.21 299.518 280.981 301.317C277.522 303.208 274.016 305.422 270.465 307.774C266.268 300.855 252.154 275.672 236.334 247.306L252.292 236.514ZM337.205 273.735C336.237 274.288 335.453 274.703 334.899 275.026C327.058 278.301 318.94 281.945 310.777 285.911L298.369 267.278L317.787 249.059L337.205 273.735ZM320.831 246.246L321.662 245.461L321.8 245.323L355.055 201.644C369.076 214.144 381.53 224.106 387.295 227.888C389.878 229.595 394.721 234.023 400.901 240.157C380.146 250.258 353.348 264.833 340.941 271.705L320.831 246.246ZM296.017 263.772L291.22 256.577L311.099 240.572L315.204 245.784L296.017 263.772ZM289.145 252.887L274.201 221.708L288.545 212.022L308.47 237.298L289.145 252.887ZM286.608 257.177L306.995 287.664C303.72 289.278 300.491 290.893 297.263 292.553L261.748 242.187L258.565 232.224L270.742 224.014L286.608 257.177ZM351.872 198.877L318.618 242.556L318.202 242.971L278.906 193.158L321.062 168.759C330.702 179.09 341.633 189.606 351.872 198.877ZM285.962 208.794L272.402 217.926L254.875 181.396L260.133 176L285.962 208.794ZM249.848 180.566L268.897 220.278L257.228 228.165L255.613 223.046L223.004 183.426C225.772 181.811 225.91 181.027 226.002 180.428C226.371 178.491 228.124 163.777 228.447 161.102L250.448 163.777L257.504 172.725L249.848 180.566ZM222.036 179.229C221.713 179.459 221.113 179.828 220.375 180.197L202.018 157.874L224.388 160.595C223.788 165.392 222.451 176.415 222.036 179.229ZM249.11 226.597L250.955 232.409L234.304 243.617C224.434 225.859 214.056 207.133 205.155 190.99C209.859 189.283 213.457 187.854 216.27 186.654L249.11 226.597ZM198.328 272.951L198.836 272.628L201.419 270.875L232.921 249.613C233.151 250.028 233.382 250.443 233.613 250.904C256.49 292 264.238 305.514 267.052 310.08C260.456 314.738 253.768 320.043 247.127 325.762L199.343 274.058L198.328 272.951ZM285.501 309.48C288.545 307.774 291.589 306.159 294.633 304.545L308.332 357.448L270.465 355.511L269.865 356.019C269.773 356.111 260.133 363.906 250.724 371.747C245.189 376.359 240.808 380.095 237.671 382.862C235.919 384.43 234.581 385.63 233.613 386.552L219.591 365.013C239.839 344.119 264.284 321.242 285.501 309.48ZM366.355 51.1446C368.938 50.3144 372.72 49.0229 377.517 47.2702C385.588 44.3645 396.75 40.1673 410.679 34.817H410.725L441.213 53.4507L381.207 79.6948L364.602 51.6981C365.156 51.5136 365.709 51.3291 366.355 51.1446ZM325.951 58.9855C326.874 57.7402 339.419 43.4881 348.69 33.0182L374.15 75.9588L350.95 93.8085L343.34 70.9314L323.276 62.906C324.798 60.646 325.721 59.2161 325.951 58.9855ZM320.924 66.4113L340.019 74.0217L348.828 100.589L376.271 79.5103L379.5 84.9529L392.092 106.17L392.322 106.585L402.516 113.641L408.788 130.246L411.048 133.936L330.794 160.825C319.817 149.433 310.085 137.994 304.181 128.262C300.399 121.99 295.556 116.962 290.252 112.857C297.631 101.557 312.99 78.4034 320.924 66.4113ZM164.843 122.958C178.542 125.403 187.905 124.527 192.655 120.283C205.293 109.075 235.365 100.635 238.64 99.7584C242.422 99.8968 283.472 102.111 300.629 130.384C306.441 139.932 315.85 151.093 326.458 162.255L322.077 163.731C313.959 154.829 306.948 146.112 302.336 138.456C283.241 107 238.502 105.847 236.611 105.847H236.334L236.057 105.939C234.673 106.308 202.157 114.979 188.089 127.432C184.445 130.661 175.959 131.26 164.013 129.185L164.843 122.958ZM179.187 324.378L128.636 285.22C143.442 263.403 156.08 244.585 156.264 244.401L170.931 222.677L172.546 185.409L160.738 152.062L163.413 133.244C176.881 135.596 186.106 134.674 190.81 130.523C203.448 119.315 233.52 110.874 236.795 109.998C240.577 110.136 281.627 112.35 298.785 140.623C303.397 148.188 310.269 156.813 318.249 165.622L276.369 189.837L252.754 159.857L198.236 153.215L197.221 151.97L181.586 149.156L180.294 156.305L193.301 158.658L213.549 183.241C209.859 184.763 205.57 186.424 201.557 187.9L199.251 188.73L200.45 190.852C200.588 191.128 215.394 217.88 230.984 245.923L198.236 268.016L195.653 269.768L192.102 272.167L244.129 328.437C230.246 340.613 216.87 354.128 205.108 366.581L179.187 324.378ZM235.596 416.255L210.182 374.883C212.258 372.669 214.425 370.409 216.639 368.103L250.494 420.176C248.603 421.329 246.758 422.482 244.913 423.589L235.596 416.255ZM256.997 433.09L248.372 426.31C249.802 425.434 251.232 424.558 252.708 423.635L253.169 424.327L256.997 433.09ZM254.045 417.962L235.919 390.104C239.978 385.906 259.257 369.902 271.849 359.708L309.439 361.6L314.513 381.063C294.265 393.378 272.771 406.477 254.045 417.962ZM301.229 301.086C303.12 300.117 305.011 299.149 306.902 298.226L315.666 299.241L345.553 331.988C343.939 343.104 342.002 355.188 341.126 359.109L315.989 357.817L301.229 301.086ZM327.15 400.943L317.049 362.015L392.645 365.843L388.263 387.567L391.538 403.11L358.468 392.271L328.995 403.572L327.15 400.943ZM360.174 448.588L331.394 407.169L358.514 396.745L392.461 407.861L396.52 427.187L360.174 448.588ZM400.348 425.111L393.014 390.196L418.197 394.762L421.564 414.18L400.348 425.111ZM392.83 385.906L396.842 366.073L421.611 367.319C420.826 369.763 420.088 373.407 419.35 378.896C418.751 383.416 418.336 387.89 418.151 390.473L392.83 385.906ZM422.21 391.58C422.902 381.986 424.378 371.562 425.854 367.549L433.003 367.918L428.298 393.978L422.21 391.58ZM438.814 398.129L432.219 395.546L437.154 368.149L449.884 368.795L451.913 369.164L438.814 398.129ZM456.111 369.902L465.381 371.562L448.685 402.003L442.689 399.651L456.111 369.902ZM451.683 455.091L433.603 458.366L426.546 417.824L444.303 420.591L466.627 435.212L451.683 455.091ZM468.564 431.522L445.779 416.624L425.762 413.488L422.764 396.238L450.576 407.215L469.717 372.346L490.565 376.128L468.564 431.522ZM492.133 372.162L450.53 364.644L425.393 363.352L424.931 362.245C424.47 362.43 424.009 362.706 423.548 363.26L393.798 361.738L393.475 361.692V361.738L380.745 361.092L385.496 332.819L381.391 332.127L376.548 360.908L345.323 359.339C346.245 355.419 347.491 347.532 349.797 331.619L349.935 330.651L321.938 299.979L399.933 309.111L470.686 355.65L496.699 360.631L492.133 372.162ZM503.617 343.242L498.267 356.71L472.3 351.683L402.239 305.56L395.459 294.49L355.977 287.341L344.4 281.253C364.003 273.504 379.546 269.445 386.649 270.737C392.507 271.798 418.52 286.834 441.49 300.117C453.528 307.082 464.643 313.493 474.698 319.12C477.835 322.625 480.325 325.393 481.847 327.099C484.799 330.42 492.917 336.232 503.617 343.242ZM477.512 309.942C473.776 307.82 469.994 305.698 466.258 303.577C450.391 286.142 428.483 262.342 411.786 245.277C413.216 244.585 414.6 243.985 415.937 243.386C437.062 265.294 464.228 295.182 477.512 309.942ZM549.049 138.133C554.168 142.653 559.611 147.45 565.146 152.431L527.878 193.988L509.752 176.784L549.049 138.133ZM579.306 248.459C573.494 252.057 569.112 254.64 567.083 255.747C566.114 256.116 561.318 256.808 540.055 252.657C526.495 250.028 509.983 246.153 493.747 242.371L498.498 215.989L494.393 215.251L489.642 241.449C454.819 233.285 433.141 228.35 426.177 229.687C423.548 230.195 419.212 231.809 413.724 234.207C413.493 234.3 413.262 234.392 413.032 234.53C411.971 233.469 410.956 232.409 409.941 231.394L411.048 230.748L462.014 201.368L465.612 181.581L488.166 162.025L579.306 248.459ZM486.967 154.783L473.038 139.148L495.177 118.346L506.984 137.441L486.967 154.783ZM402.7 181.166L428.898 164.792L426.684 161.287L400.486 177.66L402.7 181.166ZM280.289 123.835L277.245 120.975L258.611 140.716L238.179 133.059L236.703 136.934L259.764 145.559L280.289 123.835ZM426.684 161.287L400.486 177.66L402.7 181.166L428.898 164.792L426.684 161.287ZM277.291 120.975L258.657 140.716L238.179 133.059L236.703 136.934L259.764 145.559L280.289 123.789L277.291 120.975ZM426.684 161.287L400.486 177.66L402.7 181.166L428.898 164.792L426.684 161.287ZM277.291 120.975L258.657 140.716L238.179 133.059L236.703 136.934L259.764 145.559L280.289 123.789L277.291 120.975ZM426.684 161.287L400.486 177.66L402.7 181.166L428.898 164.792L426.684 161.287ZM277.291 120.975L258.657 140.716L238.179 133.059L236.703 136.934L259.764 145.559L280.289 123.789L277.291 120.975ZM426.684 161.287L400.486 177.66L402.7 181.166L428.898 164.792L426.684 161.287ZM277.291 120.975L258.657 140.716L238.179 133.059L236.703 136.934L259.764 145.559L280.289 123.789L277.291 120.975ZM426.684 161.287L400.486 177.66L402.7 181.166L428.898 164.792L426.684 161.287ZM277.291 120.975L258.657 140.716L238.179 133.059L236.703 136.934L259.764 145.559L280.289 123.789L277.291 120.975ZM426.684 161.287L400.486 177.66L402.7 181.166L428.898 164.792L426.684 161.287ZM277.291 120.975L258.657 140.716L238.179 133.059L236.703 136.934L259.764 145.559L280.289 123.789L277.291 120.975Z" fill="#234338"/>
<path d="M464.045 180.52L460.862 198.923L409.389 228.442L417.138 238.543L298.002 300.071L257.044 243.386L253.816 234.991L199.206 273.181L197.453 270.644L255.292 230.241L259.765 241.91L298.924 296.104L412.433 237.482L404.777 227.519L458.049 196.986L461.001 179.966L464.045 180.52Z" fill="#468671"/>
<path d="M463.674 177.937C465.585 177.937 467.133 176.388 467.133 174.478C467.133 172.567 465.585 171.019 463.674 171.019C461.764 171.019 460.215 172.567 460.215 174.478C460.215 176.388 461.764 177.937 463.674 177.937Z" fill="#CBEA7B"/>
<path d="M469.026 172.31C468.841 171.849 468.611 171.387 468.288 170.972C468.15 170.788 467.965 170.557 467.781 170.373C465.521 168.113 461.877 168.113 459.617 170.373C457.357 172.633 457.357 176.277 459.617 178.537C459.663 178.583 459.755 178.675 459.801 178.721C462.061 180.797 465.613 180.75 467.781 178.537C468.888 177.383 469.487 175.908 469.487 174.432C469.441 173.74 469.349 173.002 469.026 172.31ZM467.227 178.029C465.29 179.966 462.108 179.966 460.17 178.029C459.202 177.061 458.694 175.769 458.694 174.478C458.694 173.186 459.202 171.895 460.17 170.926C462.108 168.989 465.29 168.989 467.273 170.926C467.458 171.111 467.596 171.295 467.735 171.48C469.164 173.463 469.026 176.23 467.227 178.029Z" fill="#CBEA7B"/>
<path d="M197.545 229.964C190.073 229.964 184.031 236.006 184.031 243.478C184.031 250.95 197.545 264.925 197.545 265.017C197.545 264.925 211.059 250.95 211.059 243.478C211.106 236.006 205.017 229.964 197.545 229.964ZM197.638 249.013C194.455 249.013 191.872 246.43 191.872 243.247C191.872 240.065 194.455 237.482 197.638 237.482C200.82 237.482 203.403 240.065 203.403 243.247C203.403 246.43 200.866 249.013 197.638 249.013Z" fill="#CBEA7B"/>
<path d="M198.329 268.062C200.035 268.062 201.419 269.445 201.419 271.152C201.419 272.858 200.035 274.242 198.329 274.242C196.622 274.242 195.238 272.858 195.238 271.152C195.238 269.445 196.622 268.062 198.329 268.062Z" fill="#CBEA7B"/>
<path d="M742.997 39.6599C762.23 52.7128 778.789 63.8746 778.973 64.0129L787.045 69.4555V61.7068L782.525 58.6627C772.009 51.5597 759.924 43.3959 747.978 35.3243L758.91 27.7602L783.355 -9H775.652L754.343 23.194L742.351 31.4961C714.493 12.5395 688.71 -5.07953 686.358 -7.15507C686.45 -7.06283 686.589 -6.87834 686.773 -6.6016L681.284 -3.32685C681.838 -2.35827 682.299 -1.6203 731.005 31.4961C733.265 33.0182 735.479 34.5403 737.693 36.0623L704.115 79.3258L666.387 102.48C661.405 97.8673 656.747 93.624 652.596 89.8419C650.612 88.0431 648.721 86.2904 646.969 84.6761L682.068 54.2348L682.253 54.0965L698.581 30.0663L685.712 20.4266L683.498 23.3784L693.599 30.9426L685.897 42.2889L678.379 32.4647L675.473 34.6786L683.729 45.4714L679.532 51.6519L678.24 52.7589L667.77 35.3243L664.634 37.2154L675.427 55.2034L644.294 82.1855C641.249 79.3258 638.943 77.1119 638.067 76.005C631.517 67.6567 617.634 43.2114 617.496 42.9347L610.347 46.9935C610.947 48.0082 624.691 72.269 631.61 81.0785C633.593 83.6153 638.989 88.5043 647.107 95.9302C650.659 99.1588 654.764 102.895 659.145 106.954L623.215 129.047L617.496 136.288C606.057 117.746 597.848 104.601 597.064 104.048L594.85 107C594.757 106.954 594.711 106.907 594.665 106.861C595.818 108.337 604.12 121.621 615.052 139.378L600.246 158.15L587.147 163.823L588.623 167.19L595.449 164.239L568.283 198.739L573.31 202.705L607.856 158.888L622.062 152.708L622.846 152.2C633.224 169.174 644.847 188.223 654.717 204.412L638.205 208.701L565.377 259.252L569.021 264.51L595.957 245.83L615.328 278.716L625.521 298.549L589.361 304.868C588.116 301.778 584.933 293.937 581.612 286.188C572.618 265.202 571.235 264.972 569.943 264.695L569.297 268.292C568.974 268.246 568.79 268.108 568.744 268.062C570.635 269.814 578.66 288.079 585.671 305.468L561.18 309.757L561.825 313.355L586.778 309.019L589.961 326.408L609.24 340.844L591.944 406.293L595.495 407.215L612.607 342.597L662.282 362.337L661.036 369.348L616.02 464.316L619.341 465.884L664.588 370.501L665.787 363.767L689.909 373.361C670.169 403.987 641.849 454.123 640.235 456.982L643.417 458.781C643.925 457.859 694.476 368.38 707.805 354.635C701.486 366.258 696.689 375.805 693.968 382.862C674.781 413.488 650.751 456.014 649.275 458.643L652.457 460.441C652.78 459.842 673.028 424.004 691.293 394.162C690.97 397.622 690.555 401.173 690.14 404.679C688.295 420.453 686.542 435.304 692.585 443.975C697.981 451.77 721.781 478.291 731.743 489.268H741.383L742.213 488.53C741.844 488.115 705.822 448.496 699.411 439.271C695.167 433.183 696.828 419.161 698.396 405.601C698.903 401.265 699.411 396.791 699.78 392.502C700.195 387.244 706.975 373.453 715.6 357.679C716.43 356.71 717.122 355.972 717.722 355.419C726.254 347.855 758.448 318.797 781.648 296.52C782.986 299.656 783.862 302.055 784.093 303.53C785.015 308.281 778.696 335.125 773.623 356.664C763.061 401.727 758.448 423.635 761.861 430C762.968 432.076 765.828 436.78 769.702 443.099L740.23 474.14L742.905 476.677L771.686 446.328C776.16 453.523 781.602 462.286 787.229 471.234V455.691C783.678 450.018 780.357 444.667 777.543 440.101L787.229 429.908V424.558L775.56 436.872C772.424 431.753 770.118 427.878 769.149 426.126C768.826 425.249 768.227 421.052 771.87 402.28C774.223 390.334 777.589 375.759 780.956 361.461L787.275 362.614V358.878L781.833 357.91C783.908 349.054 785.753 341.167 787.275 334.295V285.819C786.952 286.142 786.63 286.419 786.307 286.742C785.753 285.542 785.154 284.297 784.554 283.006C785.477 282.037 786.399 281.161 787.229 280.284V275.026C785.938 276.41 784.462 277.932 782.848 279.546C773.946 261.236 761.077 237.667 755.035 226.689L777.451 208.978L778.143 209.716L778.235 209.808L787.183 216.634V212.022L780.68 207.087L780.311 206.718L787.137 201.322V196.663L785.246 198.139L771.547 181.12L787.137 173.648V169.589L767.765 178.906L740.875 196.894C739.446 194.034 738.016 191.174 736.54 188.315L780.91 156.997L787.137 155.014V143.852L779.711 132.829C782.156 131.445 784.646 130.061 787.137 128.678V124.48C784.001 126.187 780.818 127.986 777.636 129.738L754.528 95.4689L704.853 141.315C694.199 129.185 682.253 117.377 671.276 107.046L708.497 84.1688L742.997 39.6599ZM620.356 149.433L612.653 152.754L618.603 145.19C619.387 146.435 620.171 147.726 620.955 149.018L620.356 149.433ZM621.048 142.099L627.505 133.89L663.988 111.474C665.925 113.319 667.955 115.21 669.984 117.147L624.092 146.988C623.031 145.374 622.062 143.714 621.048 142.099ZM625.983 150.171L650.52 134.212C654.21 137.764 668.324 154.783 677.318 165.853L675.657 198.969L658.5 203.397C647.661 185.64 636.13 166.683 625.983 150.171ZM640.973 214.559L675.288 205.657L671.921 272.259L652.78 268.385L639.082 271.244L648.629 242.094L638.667 216.127L640.973 214.559ZM643.463 312.986L645.77 307.174L669.938 311.556L669.385 322.764L669.062 324.563L643.463 312.986ZM668.37 328.252L666.894 336.416L640.05 321.657L642.126 316.353L668.37 328.252ZM647.153 303.715L649.275 298.365C657.715 298.964 666.894 300.256 670.445 301.547L670.123 307.82L647.153 303.715ZM660.437 295.828C656.47 295.274 652.504 294.952 650.243 294.767L654.256 272.443L671.737 275.949L670.63 297.765C668.462 297.119 665.233 296.474 660.437 295.828ZM599.001 243.709L635.53 218.341L644.709 242.233L634.931 272.167L617.911 275.718L599.001 243.709ZM619.71 279.131L650.474 272.674L646.461 294.859L629.35 297.857L619.71 279.131ZM610.854 337.431L593.327 324.286L590.422 308.327L626.167 302.101L623.723 317.736L610.854 337.431ZM662.881 358.602L614.037 339.23L627.182 319.12L629.903 301.501L645.078 298.872L635.392 323.41L666.156 340.291L662.881 358.602ZM666.34 359.985L672.982 323.317L674.089 301.178L675.058 300.763C674.919 300.348 674.643 299.933 674.181 299.564L675.519 273.32L675.565 273.043H675.519L676.072 261.835L701.025 266.032L701.625 262.435L676.257 258.191L677.641 230.656C681.1 231.486 688.018 232.593 702.04 234.622L702.916 234.761L729.944 210.085L721.919 278.855L680.915 341.213L676.488 364.136L666.34 359.985ZM677.871 226.874L678.978 204.689L728.976 191.728C729.852 193.388 730.682 195.049 731.512 196.709L730.59 204.412L701.717 230.748C691.985 229.364 681.33 227.658 677.871 226.874ZM779.85 292.83C760.524 311.464 734.188 335.402 721.181 347.117C723.026 343.796 724.917 340.475 726.808 337.2C742.213 323.225 763.153 303.899 778.189 289.186C778.789 290.431 779.342 291.677 779.85 292.83ZM763.983 260.913C768.642 269.814 773.069 278.486 776.529 285.727C764.075 297.903 747.148 313.631 732.804 326.777C734.234 324.286 735.664 321.841 737.001 319.489C752.914 291.954 762.738 274.75 763.845 268.523C764.26 266.401 764.26 263.818 763.983 260.913ZM755.773 267.047C754.851 272.213 741.567 295.136 729.898 315.384C723.764 325.992 718.137 335.771 713.155 344.626C710.065 347.394 707.621 349.561 706.099 350.945C703.193 353.528 698.027 360.677 691.847 370.132L679.993 365.428L684.375 342.551L725.009 280.792L734.787 274.842L741.06 240.065L746.456 229.872C753.283 247.076 756.88 260.774 755.773 267.047ZM768.227 182.918L782.294 200.399L777.728 204.043L761.908 187.162L768.227 182.918ZM758.817 189.237L774.868 206.349L753.144 223.461C752.683 222.584 752.314 221.939 752.037 221.431C749.178 214.513 745.903 207.364 742.444 200.168L758.817 189.237ZM744.658 225.352L737.555 238.82L731.466 272.536L725.978 275.903L734.51 202.798C738.339 210.685 741.752 218.249 744.658 225.352ZM785.892 148.603L778.005 151.14L733.496 182.549C731.974 179.644 730.406 176.738 728.837 173.924C727.177 170.88 725.24 167.79 723.164 164.654C729.252 160.964 751.438 148.511 776.483 134.581L785.892 148.603ZM753.79 101.05L774.361 131.537C773.992 131.722 773.623 131.952 773.254 132.183C737.001 152.339 725.101 159.165 721.089 161.656C716.984 155.844 712.325 149.94 707.298 144.083L753.79 101.05ZM672.659 119.822C691.062 137.672 711.218 159.165 721.596 177.891C723.072 180.566 724.548 183.241 725.978 185.916L679.347 198.001L681.054 164.654L680.593 164.1C680.546 164.008 673.628 155.521 666.709 147.265C662.651 142.376 659.33 138.502 656.931 135.781C655.548 134.212 654.487 133.059 653.657 132.183L672.659 119.822Z" fill="#234338"/>
<path d="M131.081 208.517L127.437 203.259L100.501 221.939L81.1296 189.053L70.9364 169.22L107.097 162.901C108.342 165.991 111.525 173.786 114.846 181.581C123.84 202.567 125.223 202.798 126.515 203.074L127.16 199.477C127.437 199.523 127.622 199.615 127.668 199.661C125.731 197.77 117.751 179.598 110.787 162.255L135.278 157.966L134.632 154.368L109.68 158.704L106.497 141.315L87.264 126.879L104.56 61.43L101.009 60.5076L83.897 125.126L34.2224 105.385L35.4677 98.3747L80.5761 3.45325L77.2552 1.88506L32.0084 97.2677L30.8092 104.002L6.68683 94.4081C26.4275 63.8746 54.7933 13.6926 56.3615 10.8791L53.179 9.08027C52.6716 10.0027 2.07452 99.4817 -11.209 113.226C-4.89008 101.603 -0.0932693 92.0558 2.62799 84.999C21.8152 54.3732 45.8454 11.8477 47.3213 9.21865L44.1388 7.41984C43.816 8.01944 23.5679 43.8571 5.30314 73.6988C5.626 70.2396 6.04111 66.6881 6.45621 63.1827C8.30114 47.4086 10.0077 32.557 4.01169 23.8858C0.137344 18.3049 -13.1 3.17651 -23.9851 -9H-35.0546C-23.8006 3.5455 -6.96562 22.5482 -2.76842 28.5904C1.47491 34.6786 -0.185516 48.7001 -1.75371 62.2603C-2.26106 66.5958 -2.76842 71.0698 -3.1374 75.3131C-3.55251 80.5712 -10.3326 94.362 -18.9576 110.136C-19.7879 111.105 -20.4797 111.843 -21.1254 112.396C-29.6582 119.96 -61.8522 149.018 -85.006 171.295C-86.3436 168.159 -87.2199 165.761 -87.4966 164.285C-88.4191 159.534 -82.1002 132.69 -77.0267 111.151C-66.4184 66.0885 -61.806 44.18 -65.2653 37.815C-66.3722 35.7395 -69.2319 31.0349 -73.1062 24.716L-43.6335 -6.32486L-46.3087 -8.86163L-75.0434 21.4874C-80.3937 12.8162 -87.2199 1.93119 -94 -8.86163V6.63575C-89.1571 14.3383 -84.5909 21.6719 -80.901 27.6679L-94 41.5048V46.809L-78.9177 30.8965C-75.7814 36.0162 -73.4752 39.8905 -72.5066 41.6432C-72.1838 42.5196 -71.5842 46.7168 -75.2279 65.4889C-77.534 77.4348 -80.9471 92.0097 -84.268 106.308L-94 104.555V108.291L-85.1444 109.905C-89.1109 126.833 -92.2012 140.208 -94 149.894V170.742C-93.262 172.679 -92.3396 174.939 -91.2326 177.43C-92.2012 178.352 -93.0775 179.275 -94 180.151V185.317C-92.6163 183.933 -91.1865 182.503 -89.6183 180.981C-89.0648 182.18 -88.4652 183.426 -87.8656 184.671C-90.1718 186.977 -92.2012 189.099 -93.9539 190.99V196.386C-92.0167 194.172 -89.3416 191.359 -86.1591 188.176C-77.2573 206.487 -64.3889 230.056 -58.3468 241.034L-80.7627 258.745L-81.4545 258.007L-81.5468 257.915L-94 248.459V253.072L-84.0835 260.59L-83.7145 260.959L-94 269.076V273.735L-88.6958 269.538L-74.9973 286.603L-94 295.736V299.794L-71.2152 288.863L-44.3254 270.875C-42.8956 273.735 -41.4657 276.595 -39.9898 279.454L-84.3603 310.772L-93.1237 313.585L-94 312.294V320.55L-93.0314 320.227L-83.1149 334.894C-86.7125 336.924 -90.3563 338.953 -94 340.982V345.18C-89.8028 342.874 -85.4672 340.429 -81.0855 338.031L-57.9317 372.3L-8.34932 326.454C2.30513 338.584 14.251 350.392 25.2283 360.723L-11.993 383.508L-46.4932 428.063C-65.7265 415.01 -82.2847 403.848 -82.4692 403.71L-94 395.961V403.71L-86.0668 409.06C-75.5507 416.163 -63.4665 424.281 -51.5206 432.399L-62.4518 439.963L-94 487.516V489.13H-87.4044L-57.8395 444.529L-45.8474 436.227C-17.8968 455.183 8.0244 472.941 10.1922 474.878C10.1461 474.832 9.96157 474.601 9.77708 474.324L15.2657 471.05C14.7123 470.081 14.251 469.343 -34.455 436.227C-36.6689 434.705 -38.929 433.183 -41.1429 431.661L-7.61134 388.351L30.1174 365.197C35.0987 369.809 39.7571 374.053 43.9082 377.835C45.8915 379.634 47.7826 381.386 49.5352 383.001L14.4355 413.442L14.251 413.58L-2.07657 437.61L10.7918 447.25L13.0057 444.298L2.95085 436.78L10.6534 425.434L18.1715 435.258L21.0773 433.044L12.7751 422.251L16.9723 416.071L18.2637 414.964L28.7337 432.399L31.8701 430.508L21.0773 412.519L52.2104 385.537C55.2545 388.397 57.5607 390.611 58.437 391.718C64.9865 400.066 78.8696 424.511 79.0079 424.788L86.157 420.729C85.5574 419.715 71.8127 395.454 64.8942 386.644C62.9109 384.108 57.5145 379.219 49.3969 371.793C45.8454 368.564 41.7865 364.828 37.3587 360.769L73.2887 338.676L79.0079 331.435C90.4465 349.976 98.6564 363.122 99.4405 363.675L101.654 360.723C101.747 360.769 101.793 360.815 101.839 360.862C100.686 359.386 92.3836 346.102 81.4986 328.345L96.3041 309.573L109.403 303.899L107.927 300.532L101.101 303.484L128.267 268.984L123.24 265.018L88.7399 308.881L74.534 315.061L73.7499 315.569C63.3722 298.595 51.7491 279.546 41.8788 263.357L58.3909 259.068L131.081 208.517ZM97.5033 224.014L60.9738 249.382L51.7491 225.444L61.5734 195.51L78.5928 191.959L97.5033 224.014ZM76.794 188.592L46.0299 195.049L50.0426 172.864L67.1543 169.866L76.794 188.592ZM52.9945 154.737L50.6883 160.549L26.5198 156.167L27.0733 144.959L27.3961 143.206L52.9945 154.737ZM28.1341 139.47L29.61 131.307L56.4537 146.02L54.3782 151.324L28.1341 139.47ZM49.3507 164.008L47.2291 169.358C38.7885 168.759 29.61 167.467 26.0585 166.176L26.3814 159.903L49.3507 164.008ZM36.0673 171.895C40.0339 172.402 44.0005 172.771 46.3066 172.956L42.2939 195.233L24.8132 191.728L25.9202 169.912C28.0418 170.557 31.2705 171.249 36.0673 171.895ZM85.6497 130.246L103.176 143.391L106.082 159.35L70.3368 165.576L72.7813 149.94L85.6497 130.246ZM33.6228 109.121L82.421 128.539L69.2759 148.603L66.5085 166.222L51.334 168.897L61.0199 144.359L30.2558 127.478L33.6228 109.121ZM30.1635 107.738L23.5218 144.406L22.4148 166.545L21.4462 166.96C21.6307 167.375 21.8613 167.744 22.3226 168.159L20.985 194.403L20.9389 194.68H20.985L20.4315 205.888L-4.5211 201.691L-5.1207 205.288L20.247 209.578L18.8633 237.113C15.4041 236.283 8.48563 235.176 -5.5358 233.147L-6.41215 233.008L-33.4403 257.684L-25.4149 188.914L15.5425 126.602L19.9703 103.679L30.1635 107.738ZM18.5866 240.849L17.4335 262.988L-32.564 275.949C-33.4403 274.288 -34.2705 272.628 -35.1007 270.968L-34.1783 263.265L-5.30518 236.929C4.51904 238.358 15.1735 240.065 18.5866 240.849ZM-83.3917 174.893C-64.0661 156.259 -37.7298 132.321 -24.723 120.606C-26.568 123.927 -28.459 127.248 -30.3501 130.523C-45.7552 144.498 -66.6951 163.823 -81.7312 178.537C-82.2847 177.245 -82.8382 176.046 -83.3917 174.893ZM-67.4792 206.81C-72.1376 197.908 -76.5655 189.237 -80.0247 181.996C-67.5714 169.773 -50.6442 154.045 -36.2999 140.9C-37.7298 143.391 -39.1596 145.835 -40.4972 148.188C-56.4096 175.723 -66.2339 192.881 -67.3408 199.154C-67.7559 201.322 -67.7559 203.904 -67.4792 206.81ZM-59.2693 200.676C-58.3468 195.51 -45.0633 172.587 -33.3942 152.339C-27.2598 141.73 -21.6328 131.952 -16.6515 123.097C-13.5612 120.329 -11.1167 118.162 -9.59464 116.778C-6.68888 114.195 -1.52309 107.046 4.65741 97.5906L16.5111 102.295L12.0832 125.218L-28.5513 186.977L-38.3294 192.927L-44.6021 227.704L-49.9985 237.897C-56.8247 220.601 -60.3762 206.902 -59.2693 200.676ZM-71.7225 284.804L-85.7901 267.278L-81.2239 263.68L-65.4036 280.561L-71.7225 284.804ZM-62.3134 278.486L-78.3643 261.374L-56.6403 244.262C-56.179 245.139 -55.81 245.784 -55.5333 246.292C-52.6737 253.21 -49.445 260.359 -45.9397 267.554L-62.3134 278.486ZM-48.1536 242.371L-41.0506 228.903L-34.9624 195.187L-29.4737 191.82L-38.0065 264.925C-41.8347 257.038 -45.2478 249.428 -48.1536 242.371ZM-89.3877 319.12L-81.4545 316.583L-36.9457 285.173C-35.4236 288.079 -33.8554 290.985 -32.2872 293.798C-30.6268 296.843 -28.6896 299.933 -26.6141 303.069C-32.7023 306.759 -54.8876 319.212 -79.9324 333.142L-89.3877 319.12ZM-57.3321 366.673L-77.8569 336.186C-77.4879 335.955 -77.1189 335.771 -76.7038 335.54C-40.4972 315.384 -28.5513 308.558 -24.5385 306.067C-20.4336 311.879 -15.7751 317.783 -10.7477 323.64L-57.3321 366.673ZM23.8446 347.901C5.39538 330.051 -14.7604 308.558 -25.092 289.832C-26.568 287.157 -28.0439 284.482 -29.4737 281.806L17.1107 269.722L15.4041 303.115L15.8653 303.669C15.9115 303.761 22.7838 312.248 29.7484 320.55C33.8072 325.439 37.1281 329.313 39.5726 332.035C40.9563 333.603 42.0172 334.756 42.8474 335.632L23.8446 347.901ZM76.1022 318.29L83.8047 314.969L77.8087 322.533C77.0246 321.288 76.2405 319.996 75.4564 318.705L76.1022 318.29ZM75.4564 325.577L68.9992 333.787L32.5619 356.203C30.6247 354.358 28.5953 352.467 26.5659 350.53L72.4584 320.688C73.427 322.349 74.4417 324.009 75.4564 325.577ZM70.5213 317.552L45.9837 333.51C42.2939 329.959 28.1802 312.94 19.1862 301.87L20.8466 268.754L38.0045 264.28C48.8434 282.083 60.3742 301.04 70.5213 317.552ZM55.4851 253.118L21.1695 262.02L24.5365 195.418L43.6776 199.292L57.3762 196.433L47.8287 225.582L57.7913 251.55L55.4851 253.118Z" fill="#234338"/>
</g>
<defs>
<clipPath id="clip0_74_764">
<rect width="693.5" height="480" rx="10" fill="white"/>
</clipPath>
</defs>
</svg>
